<svg xmlns="http://www.w3.org/2000/svg" viewBox="0 0 1157.5 232" role="img" aria-label="Fiveleaf">
  <text x="268.52" y="218.36" font-family="Inter Tight, Inter, system-ui, sans-serif" font-size="263.77" font-weight="600" letter-spacing="-0.01em" fill="#272425">fiveleaf</text>
  <g fill="#272425">
    <path d="M135.23,130.23c10.48-4.68,17.57-12.71,23.23-22.16,5.73-9.56,9.51-19.86,11.29-30.88.16-1,.57-1.45,1.53-1.73,8.75-2.55,17.64-3.04,26.63-1.78,6.91.97,13.52,2.88,19.54,6.55,2.16,1.31,4.15,2.84,5.87,4.69,5.28,5.7,6.08,12.29,3.78,19.46-2.04,6.36-5.69,11.74-10.17,16.58-7.49,8.08-16.29,14.22-26.89,17.52-8.38,2.61-17.01,3.07-25.71,2.34-6.9-.58-13.6-1.99-19.97-4.79-3.3-1.45-6.4-3.22-9.12-5.81Z"/>
    <path d="M122.93,137.69c2.64,2.98,5.57,5.45,8.85,7.51,7.18,4.52,15.08,7.07,23.37,8.54,9.77,1.73,19.57,1.88,29.37.32.78-.12,1.07.27,1.43.78,4.83,6.86,7.86,14.49,9.63,22.65,1.67,7.67,2.08,15.36.25,23.07-.92,3.88-2.47,7.48-5.15,10.49-3.45,3.89-7.92,5.62-12.99,5.95-7.46.48-14.42-1.52-21.08-4.64-10.44-4.9-19.29-11.78-25.64-21.52-5.4-8.27-8.5-17.46-10.14-27.15-1.17-6.93-1.39-13.88.25-20.79.42-1.76.93-3.48,1.85-5.21Z"/>
    <path d="M112.01,128.27c-5.43,9.43-6.57,19.51-5.87,29.92.8,11.85,3.96,23.07,9.3,33.67.34.68.18,1.08-.23,1.61-5.78,7.64-13.08,13.45-21.55,17.82-6.17,3.18-12.64,5.42-19.64,5.8-3.71.2-7.37-.16-10.81-1.68-5.7-2.53-8.81-7.22-10.55-12.95-2.24-7.38-2.12-14.89-.78-22.39,1.7-9.54,4.87-18.57,10.94-26.22,10.24-12.9,23.36-21.49,39.53-25.15,3.13-.71,6.33-.96,9.66-.45Z"/>
    <path d="M117.61,115.01c-2.28-.47-4.49-.81-6.73-.91-6.85-.32-13.46.93-19.88,3.17-12.46,4.35-23.34,11.26-32.7,20.55-.67.67-1.21.58-1.93.32-8.33-2.95-15.61-7.61-22.04-13.63-5.46-5.11-10.04-10.89-12.83-17.91-2.18-5.49-2.96-11.06-.34-16.64,2.12-4.53,5.77-7.62,10.01-10.07,5.89-3.41,12.32-5.24,19.01-6.15,8.64-1.17,17.22-.85,25.62,1.62,9.92,2.91,18.37,8.4,25.96,15.27,5.96,5.39,11.01,11.5,14.22,18.97.73,1.7,1.28,3.45,1.63,5.4Z"/>
    <path d="M131.91,116.21c-.47-5.32-1.98-10.11-4.22-14.69-4.36-8.9-10.7-16.23-18.11-22.7-5.4-4.72-11.27-8.78-17.69-12-.73-.36-.85-.82-.84-1.52.04-7.46,1.74-14.58,4.45-21.48,2.95-7.49,6.98-14.31,12.86-19.92,3.76-3.59,7.98-6.35,13.27-7.13,4.37-.65,8.33.54,12.04,2.72,5.28,3.1,9.27,7.53,12.54,12.6,7.15,11.08,11.08,23.15,10.47,36.45-.43,9.24-3.07,17.96-7,26.3-3.03,6.43-6.84,12.34-12.06,17.24-1.67,1.57-3.46,2.99-5.7,4.14Z"/>
  </g>
</svg>
