<svg xmlns="http://www.w3.org/2000/svg" viewBox="0 0 400 100" width="400" height="100" role="img" aria-label="Fiveleaf">
  <g fill="#0A0A0A">
    <g transform="translate(8 12) scale(0.76)">
      <path d="M50 4 C 56 14, 60 22, 60 34 C 60 42, 56 47, 50 50 C 44 47, 40 42, 40 34 C 40 22, 44 14, 50 4 Z" transform="rotate(0 50 50)" />
      <path d="M50 4 C 56 14, 60 22, 60 34 C 60 42, 56 47, 50 50 C 44 47, 40 42, 40 34 C 40 22, 44 14, 50 4 Z" transform="rotate(72 50 50)" />
      <path d="M50 4 C 56 14, 60 22, 60 34 C 60 42, 56 47, 50 50 C 44 47, 40 42, 40 34 C 40 22, 44 14, 50 4 Z" transform="rotate(144 50 50)" />
      <path d="M50 4 C 56 14, 60 22, 60 34 C 60 42, 56 47, 50 50 C 44 47, 40 42, 40 34 C 40 22, 44 14, 50 4 Z" transform="rotate(216 50 50)" />
      <path d="M50 4 C 56 14, 60 22, 60 34 C 60 42, 56 47, 50 50 C 44 47, 40 42, 40 34 C 40 22, 44 14, 50 4 Z" transform="rotate(288 50 50)" />
    </g>
    <text x="100" y="68" font-family="Inter, system-ui, sans-serif" font-size="62" font-weight="700" letter-spacing="-1.5">fiveleaf</text>
  </g>
</svg>
